<svg xmlns="http://www.w3.org/2000/svg" viewBox="0.010020583868026733 -0.03173692524433136 45.063289642333984 45.06000518798828" width="60" height="59.99580029397942">
  <g id="图层_2" data-name="图层 2">
    <g id="Layer_1" data-name="Layer 1">
      <path d="M39.62,9.33A16.59,16.59,0,0,0,28.43,4.75a17.86,17.86,0,0,0-13,5.72,15.68,15.68,0,0,0-4,12.28h0v0h0a12.31,12.31,0,0,0,3.36,7.6,10.73,10.73,0,0,0,7.76,3.27,11.15,11.15,0,0,0,10.92-13.3c-2.54-7.63-9.58-5.83-12-3.14a5.24,5.24,0,0,1,1.11-.12,5.43,5.43,0,0,1,0,10.86c-2.9,0-5.18-2.67-5.44-5.65-.66-7.58,5.07-11.86,11.34-11.86,4.54,0,10.93,3.75,10.93,12.08a16.83,16.83,0,0,1-33.66,0c0-.55,0-1.1.08-1.65a19.51,19.51,0,0,1,7-14.43A23,23,0,0,1,31.89,2,22.53,22.53,0,1,0,45.07,22.53,17.88,17.88,0,0,0,39.62,9.33Z" fill="#e72e5d"/>
    </g>
  </g>

  <g transform="translate(0,66.99580001831055)">
    <g data-gra="path-name" class="tp-name iconsvg-namesvg" transform="translate(0,0)">
      <g>
        <path d="M-0.27 0C2.32-0.27 5.51-0.27 8.15 0L8.15-0.25C6.24-1.61 5.81-3.44 5.64-7.42 5.64-7.64 5.62-7.85 5.62-8.07 5.81-9.84 7.09-11.04 8.18-11.04 9.33-11.04 9.63-9.76 9.24-9.08 10.5-8.37 12.71-9.05 12.65-11.32 12.65-12.46 11.89-13.5 10.2-13.5 8.04-13.5 6.27-11.15 5.62-9.43 5.62-10.77 5.73-12.13 5.92-13.36 4.23-12.27 1.72-11.86-0.35-11.81L-0.35-11.51C1.31-10.85 1.53-8.81 1.53-6.33 1.53-3.11 1.17-0.82-0.27-0.33ZM17.97 0C20.78 0 21.81-1.85 23.15-2.07 23.12-1.36 23.04-0.68 22.96-0.03 25.01-0.27 26.81-0.27 29.15-0.03L29.15-0.33C27.46-0.74 27.35-4.77 27.35-7.06 27.35-10.25 27.51-11.32 28.17-13.39 26.31-12.3 24.08-11.45 21.35-11.64L21.35-11.29C22.88-10.74 23.23-10.33 23.23-6.05 23.23-3.6 22.11-1.72 20.7-1.72 18.87-1.72 18.35-4.44 18.35-7.91 18.35-10.25 18.57-12.57 19.01-13.66 17.12-12.65 14.62-11.83 12.03-11.83L12.03-11.51C14.21-10.72 14.13-8.56 13.74-5.56 13.31-1.96 15.08 0 17.97 0ZM29.04 0C31.63-0.27 34.09-0.27 36.73 0L36.73-0.33C35.37-0.79 34.96-2.7 34.96-7.42L34.96-7.85C35.12-9.93 35.97-11.7 37.19-11.7 38.89-11.7 39.59-8.94 39.57-5.48 39.51-2.73 39.1-0.93 37.93-0.33L37.93 0C40.38-0.27 43.41-0.27 46.27 0L46.27-0.33C43.98-1.15 44.18-3.08 43.68-7.74 43.52-10.09 44.69-11.89 45.87-11.89 47.75-11.89 48.35-8.56 48.43-5.13 48.48-2.37 48.24-0.93 47.09-0.33L47.09 0C49.71-0.27 52.55-0.27 55.44 0L55.44-0.33C53.15-1.5 53.34-3.08 52.74-7.74 52.41-10.36 51.21-13.39 48.07-13.39 45.46-13.39 44.23-11.4 42.78-11.29 42.16-12.52 41.18-13.39 39.57-13.39 37-13.39 36.19-11.48 35.04-11.32 35.07-12 35.15-12.71 35.23-13.36 33.54-12.27 31.03-11.86 28.96-11.81L28.96-11.51C30.76-11.02 30.84-8.81 30.84-6.33 30.84-3.11 30.49-0.82 29.04-0.33ZM58.87 0.19C60.81 0.19 62.83-1.23 63.48-3.41 64.16-0.46 66.04 0 67.14 0 69.59 0 70.3-2.78 70.3-3.49L70-3.49C69.92-2.95 69.73-2.24 69.02-2.24 67.49-2.24 67.27-6.82 66.59-9.52 65.77-12.68 62.94-13.25 60.67-13.25 57.21-13.25 54.81-11.78 54.81-9.9 54.81-8.56 55.93-7.53 57.24-7.53 58.82-7.53 59.58-8.84 59.58-9.52 58.79-9.49 58-10.01 58-10.91 58-11.89 58.93-12.65 60.13-12.65 61.14-12.65 61.82-12.13 62.28-11.04 63.62-6.35 54.65-8.37 54.65-3.48 58.87 0.19Z" fill="#ee2f71" />
      </g>
    </g>
  </g>
</svg>